<svg xmlns="http://www.w3.org/2000/svg" enable-background="new 0 0 1123 972" viewBox="0 0 1123 972" id="DeveloperTeam"><switch><g fill="#212323" class="color000000 svgShape"><path fill="#cce3ff" d="M220.9 762.7c1.9 4.7 4 9.4 6.3 13.9 34.2 67.1 103.6 109.4 177.6 117 59.2 6 116.8-13.3 166.3-44.8 49.4-31.4 89-75.6 143.9-98.6 77.4-32.3 163.7-57.8 224.4-126.2 69-77.7 95.6-195.5 63.1-294.9-31.6-97-136.5-128.4-218-171.1C638 81.1 435.1 30 282.6 120.3 99.9 228.4 133.1 473.8 191 644.1c13.2 38.8 14.8 80.6 29.9 118.6z" opacity=".37" class="colorcce9ff svgShape"></path><path fill="#55a0ff" d="m314.1 302.9-.3-1.9h-1.9c-37 0-49-11.9-49.1-12l-1.6-1.8-1.6 1.8c-.1.1-12 12-49.1 12h-1.9l-.3 1.9c-.1.6-7.9 60.2 51.9 90.8l1 .5 1-.5c60-30.6 51.9-90.2 51.9-90.8zm-9 36.9c-7.4 21.4-22.2 38-44 49.4-21.8-11.4-36.6-28-44-49.4-5.4-15.7-5.1-29.4-4.7-34.3 30.8-.4 44.5-8.6 48.7-12 4.2 3.3 17.9 11.6 48.7 12 .4 5 .7 18.6-4.7 34.3zM372.8 226.3l-2.1-5.5c-1.9-.2-3.7-.7-5.5-1.3l-4.3 4-12.4-8.9 2.4-5.4c-1.2-1.5-2.2-3.1-3-4.8l-5.9-.2-2.5-15.1 5.5-2.1c.2-1.9.7-3.7 1.3-5.5l-4-4.3 8.9-12.5 5.4 2.4c1.5-1.2 3.1-2.2 4.8-3l.2-5.9 15.1-2.5 2.1 5.5c1.9.2 3.7.7 5.5 1.3l4.3-4 12.4 8.9-2.4 5.4c1.2 1.5 2.2 3.1 3 4.8l5.9.2 2.5 15.1-5.5 2.1c-.3 1.9-.7 3.7-1.3 5.5l4 4.3-8.9 12.5-5.4-2.4c-1.5 1.2-3.1 2.2-4.8 3l-.2 5.9-15.1 2.5zm-8.6-11.6 1.2.5c2.2.9 4.6 1.4 7 1.6l1.3.1 1.8 4.7 8.3-1.4.2-5 1.2-.5c2.2-1 4.2-2.3 6.1-3.8l1-.8 4.6 2.1 4.9-6.8-3.5-3.7.5-1.2c.9-2.2 1.4-4.6 1.6-7l.1-1.3 4.7-1.8-1.4-8.3-5-.2-.5-1.2c-1-2.2-2.3-4.2-3.8-6.1l-.8-1 2.1-4.6-6.8-4.9-3.7 3.4-1.2-.5c-2.2-.9-4.6-1.4-7-1.6l-1.3-.1-1.8-4.7-8.3 1.4-.2 5-1.2.5c-2.2 1-4.2 2.3-6.1 3.8l-1 .8-4.6-2.1-4.9 6.8 3.5 3.7-.5 1.2c-.9 2.2-1.4 4.6-1.6 7l-.1 1.3-4.7 1.8 1.4 8.3 5 .2.5 1.2c1 2.2 2.3 4.2 3.8 6.1l.8 1-2.1 4.6 6.8 4.9 3.7-3.4zm10.4-7c-3.4 0-6.8-1.1-9.6-3.1-7.5-5.3-9.2-15.7-3.9-23.2 5.3-7.5 15.7-9.2 23.2-3.9 3.6 2.6 6 6.4 6.8 10.8.7 4.4-.3 8.8-2.8 12.4-2.6 3.6-6.4 6-10.8 6.8-1.1.1-2 .2-2.9.2zm0-29.1c-3.9 0-7.7 1.8-10.1 5.2-1.9 2.7-2.7 6-2.1 9.3.6 3.3 2.3 6.1 5 8 2.7 1.9 6 2.7 9.3 2.1 3.3-.6 6.1-2.3 8-5 1.9-2.7 2.7-6 2.1-9.3-.6-3.3-2.3-6.1-5-8-2.2-1.5-4.7-2.3-7.2-2.3zM852.2 389.3l-4.7-12.3c-5-.6-10-1.7-14.7-3.4l-9.6 9-26-18.5 5.4-12c-3.1-3.9-5.8-8.2-8-12.8l-13.1-.4-5.3-31.5 12.3-4.7c.6-5 1.7-10 3.4-14.7l-9-9.6 18.5-26 12 5.4c3.9-3.1 8.2-5.8 12.8-8l.4-13.1 31.5-5.3 4.7 12.3c5 .6 10 1.7 14.7 3.4l9.6-9 26 18.5-5.4 12c3.1 3.9 5.8 8.2 8 12.8l13.1.4 5.3 31.5-12.3 4.7c-.6 5-1.7 10-3.4 14.7l9 9.6-18.5 26-12-5.4c-3.9 3.1-8.2 5.8-12.8 8l-.4 13.1-31.5 5.3zm-20.8-22.1 1.6.6c5.3 2 10.9 3.3 16.6 3.8l1.8.2 4.3 11.2 22.4-3.8.4-12 1.6-.7c5.2-2.3 10.1-5.4 14.5-9.1l1.3-1.1 11 4.9 13.2-18.5-8.2-8.8.6-1.6c2-5.3 3.3-10.9 3.8-16.6l.1-1.8 11.2-4.3-3.8-22.4-12-.4-.7-1.6c-2.3-5.2-5.4-10.1-9.1-14.5l-1.1-1.3 4.9-11-18.5-13.2-8.8 8.2-1.6-.6c-5.3-2-10.9-3.3-16.6-3.8l-1.8-.1-4.3-11.2-22.4 3.8-.4 12-1.6.7c-5.2 2.3-10.1 5.4-14.5 9.1l-1.3 1.1-11-4.9-13 18.5 8.2 8.8-.6 1.6c-2 5.3-3.3 10.9-3.8 16.6l-.1 1.8-11.2 4.3 3.8 22.4 12 .4.7 1.6c2.3 5.2 5.4 10.1 9.1 14.5l1.1 1.3-4.9 11 18.5 13.2 8.6-8.3zm23.6-20.6c-7.3 0-14.6-2.2-21-6.7-16.3-11.6-20.1-34.3-8.5-50.6 11.6-16.3 34.3-20.1 50.6-8.5 16.3 11.6 20.1 34.3 8.5 50.6-7.1 9.9-18.3 15.2-29.6 15.2zm.1-66.9c-9.6 0-19.1 4.5-25 12.9-4.8 6.7-6.6 14.8-5.3 22.9 1.4 8.1 5.8 15.1 12.5 19.9 13.8 9.8 33 6.6 42.8-7.2 4.7-6.7 6.6-14.8 5.3-22.9-1.4-8.1-5.8-15.1-12.5-19.9-5.5-3.9-11.7-5.7-17.8-5.7zM365.3 614.3c-4.8-13.5-10.3-28.7-4.2-44.3 8.2-21-9.2-31.8-24.5-41.5-13.2-8.2-25.6-16-21.4-28.9 4.6-14 4.3-24.8-.9-31.9-4.4-6-12.2-9.2-22.6-9.1-8.3.1-15.7-10.1-23.6-20.8-9.3-12.6-18.8-25.6-30.8-22.7-2.1.5-3.8 1.7-4.8 3.6-4.2 7.9 2.4 26.7 9.5 46.7 7.6 21.6 16.3 46 10.6 56.4-6.2 11.4 5 21.8 16.9 32.9 12.6 11.7 26.9 25 23.1 41.7-3.6 15.6-4.4 21.4-2.2 24.8 1.7 2.7 5.2 3.3 10.5 4.3 3.6.7 8.2 1.5 13.8 3.3 24.1 7.5 31.1 23.1 31.2 23.3l.3.7.7-.1c11.6-1.8 18.4-5.1 21.6-10.4.2-.3.3-.6.5-.9 3.4-7.1.1-16.4-3.7-27.1z" class="colorffbe55 svgShape"></path><path fill="#4d9cff" d="M303.7 584.5c4 6.2 6.9 11.6 6.6 19.2-.2 7.1-1.3 14.1-1.9 21.1-.1 1.5-.2 2.9-.3 4.3-2-1.7-3.9-3.4-5.9-5.1-.9-.1-1.8-.1-2.8-.1 2.8 2.3 5.7 4.8 8.5 7.3-.3 4.9-.4 9.8-.4 14.7 0 2.9-.1 6 .1 8.9-2.6-1.6-5.3-3.2-7.8-4.8-7.8-4.8-15.1-9.3-20.7-11.7-4.3-1.8-9.1-3.4-13.7-4.9-12-3.9-24.3-7.9-28.4-16.4-2.1-4.4-1.9-9.7.6-16.1 6.3-16.5.4-19.3-9.5-24.1-7.2-3.5-17-8.2-26.8-20.1-4.3-5.2-8.1-9.7-11.5-13.6-10.1-11.9-15.7-18.4-15-22.2.2-.9.7-1.7 1.7-2.5.5-.4 1.1-.8 1.9-1.2 3.8-2.1 7.6-.5 11.9 1.3 5.8 2.4 12.9 5.5 22.8.4 7.8-4 16.5-7.7 21.7-4.7 3.6 2 5.7 7.2 6.4 15.7.2 2.7 1.1 4.6 2.6 5.7 2.2 1.6 5.6 1.4 9.5.6 2.7 3.7 6.2 5.5 10.4 7 5.9 2.1 10.3 4 14.6 8.8 9.2 10.4 18.1 21 25.4 32.5z" class="color2a94f4 svgShape"></path><path fill="#ffffff" d="M271.8 601c-6-4-11.2-13.7-16.2-23.1-6.8-12.8-13.9-26-23.6-25.7-15.6.4-29.5-18-29.7-18.1l-1.3 1c.6.8 14.6 19.2 31 18.8 8.7-.2 15.6 12.5 22.1 24.9 5.1 9.5 10.4 19.4 16.7 23.7 3.8 2.5 10.8 7.6 19.1 14.1v-2.1c-7.3-6.1-13.8-10.7-18.1-13.5z" class="colorffffff svgShape"></path><path fill="#55a0ff" d="M798.8 724.9s9-22.4-7.4-54.2c-16.5-31.8-29.8-26.9 9.9-51.4s.2-101.5 34-111.3c33.8-9.8 63.1-134.5 88.8-118.6 25.7 15.9-8.6 77 9.8 95.4 18.3 18.4 20.8 41.7-17.1 60.6-37.9 18.9 26.9 91.1-24.5 113.1s-36.6 108.3-93.5 66.4z" class="colorffbe55 svgShape"></path><path fill="#ffffff" d="M814.5 748.6c-.1-.3-5.6-28.9 11.9-65.9 17.8-37.7 26.3-78.9 22.8-110.3-1.9-17 9-23.6 19.5-30 10.4-6.3 21.1-12.9 20.5-29.6-.5-15.1 5.9-50.5 6.1-52l2.3.4c-.1.4-6.6 36.7-6.1 51.5.6 18.1-10.7 25-21.6 31.6-10.4 6.3-20.1 12.3-18.4 27.8 3.6 31.7-5 73.4-23 111.5-17.1 36.3-11.8 64.2-11.7 64.5l-2.3.5z" class="colorffffff svgShape"></path><path fill="#0e8c8c" d="M951 562.8c14.3-6.8 29.5-3.7 21.6 10.6-7.9 14.3-19.7 15.4-17.5 26.7 2.2 11.3 8 23.6-10.6 30.8-18.6 7.1-27.3 5.9-38.6 26.8-11.4 20.9-15.3 36.4-34.8 31.4-19.5-5.1-3.3-30.8 6.8-41.6 0 0 13.7-11.6 13.5-32.5-.2-20.9-8.8-34.9 18.2-33.5 27 1.2 31.7-14.1 41.4-18.7z" class="color0e538c svgShape"></path><path fill="#ffffff" d="M868 703.7c.8-2.7 19.6-67.4 35-74.4 15.7-7.2 24.2-26 27.9-36.5 4.8-13.7 25.3-16.4 26.1-16.5l.3 2.3c-.2 0-19.9 2.6-24.2 14.9-4.6 13.3-13.4 30.7-29.1 37.9-14.4 6.6-33.5 72.3-33.7 73l-2.3-.7zM372.7 651.6c-30.8-7.7-31.2-24.3-31.6-40.3-.3-13.1-.6-25.5-17.3-33.1-22.1-10.1-22.6-28.8-23.1-45.3-.4-12.3-.7-23.9-9.9-30.2-22.1-15.1-40.8-51.7-41-52.1l1.7-.9c.2.4 18.6 36.5 40.4 51.4 10 6.8 10.4 18.9 10.7 31.7.5 16.7 1 34.1 22 43.6 17.7 8.1 18.1 21.7 18.4 34.8.4 16 .8 31.2 30.2 38.5l-.5 1.9z" class="colorffffff svgShape"></path><path fill="#f7f7f7" d="M331.2 636.8h505.9V271.6c0-5.2-4.2-9.5-9.5-9.5H340.7c-5.2 0-9.5 4.2-9.5 9.5v365.2z" class="colorf7f7f7 svgShape"></path><path fill="#0b7070" stroke="#ffffff" stroke-miterlimit="10" stroke-width=".5" d="M349.1 280.5h469.2v288.3H349.1z" transform="rotate(-180 583.685 424.607)" class="color0b4870 svgShape colorStrokeffffff svgStroke"></path><path fill="#f2f2f2" d="M837.1 582.7H331.4L276 789.6h616.4z" class="colorf2f2f2 svgShape"></path><path fill="#0b7070" stroke="#ffffff" stroke-miterlimit="10" stroke-width=".5" d="M350.5 619h31.1c1.3 0 2.3 1 2 2.1l-3 13.5c-.2.8-1 1.4-2 1.4H347c-1.3 0-2.3-1-2-2.2l3.5-13.5c.2-.7 1-1.3 2-1.3zM395.8 619h23.5l-3.1 17.1h-24zM431 619h23.5l-2.4 17.1h-24zM466.3 619h23.5l-1.8 17.1h-24zM501.5 619H525l-1.1 17.1h-24zM536.7 619h23.5l-.4 17.1h-24zM818.7 619h-35.3l3.8 17.1h35.9zM771.7 619h-23.5l3.1 17.1h24zM736.5 619H713l2.4 17.1h24zM701.2 619h-23.5l1.8 17.1h24zM666 619h-23.5l1.1 17.1h24zM630.8 619h-23.5l.4 17.1h24zM572 619h23.5l.3 17.1H572zM340.2 648.8h49l-2.8 17.6h-50zM826.3 648.8h-60.6l3.4 17.6H831zM753.5 648.8h-24.2l2.7 17.6h24.8zM717.1 648.8h-24.2l2 17.6h24.8zM680.7 648.8h-24.2l1.4 17.6h24.7zM644.3 648.8h-24.2l.7 17.6h24.7zM332.8 680.1H383l-3.7 17.5h-51.1zM395.5 680.1h25.1l-2.9 17.5h-25.6zM433.2 680.1h188.1l.7 17.5H430.4zM633.9 680.1H659l1.4 17.5h-25.6zM671.5 680.1h25.1l2.1 17.5h-25.6zM709.2 680.1h25.1l2.7 17.5h-25.5zM746.8 680.1h25.1l3.4 17.5h-25.5zM784.4 680.1h50.2l4.6 17.5h-51.1zM608 648.8h-24.1v17.6h24.5zM571.6 648.8h-24.3l-.7 17.6h24.8zM535.2 648.8h-24.3l-1.4 17.6h24.8zM498.8 648.8h-24.3l-2.1 17.6h24.8zM462.4 648.8h-24.3l-2.8 17.6h24.8zM426 648.8h-24.3l-3.4 17.6H423zM351.6 608.3l4-15.2H367l-3.7 15.2zM378.4 593.1h22.8l-3.1 15.2h-23.3zM412.7 593.1h22.8l-2.6 15.2h-23.2zM446.9 593.1h22.8l-2 15.2h-23.2zM481.1 593.1h22.8l-1.4 15.2h-23.2zM515.3 593.1h22.8l-.8 15.2h-23.2zM549.5 593.1h22.8l-.2 15.2h-23.2zM583.7 593.1h22.8l.4 15.2h-23.2zM617.9 593.1h22.8l1 15.2h-23.2zM652.1 593.1H675l1.5 15.2h-23.2zM686.4 593.1h22.8l2.2 15.2h-23.2zM720.6 593.1h22.8l2.8 15.2H723zM754.8 593.1h22.8l3.4 15.2h-23.2zM789 593.1h22.8l4 15.2h-23.2z" class="color0b4870 svgShape colorStrokeffffff svgStroke"></path><path fill="#d3d3d3" d="M876.3 805.7H292.1c-8.9 0-16.1-7.2-16.1-16.1h616.4c0 8.9-7.2 16.1-16.1 16.1zM655.9 722.7c-.6-3.6-3.8-6.3-7.4-6.3H520c-3.7 0-6.8 2.7-7.4 6.3l-8 48.5c-.8 4.6 2.8 8.8 7.4 8.8h144.4c4.7 0 8.2-4.2 7.4-8.8l-7.9-48.5z" class="colord3d3d3 svgShape"></path><path fill="#f7f7f7" d="M380.7 304.9H433v5.4h-52.3zM447.7 345.2h37.7v5.4h-37.7zM491.3 345.2h25v5.4h-25zM381.3 446.6h25v5.4h-25zM521.3 345.2h60.5v5.4h-60.5zM381.3 426.3h38.9v5.4h-38.9zM435.5 466.7h23.7v5.4h-23.7zM381.3 466.7h47v5.4h-47zM381.3 486.9h25.9v5.4h-25.9zM443.2 304.9h37.1v5.4h-37.1zM443.2 365.4h37.1v5.4h-37.1zM424.6 385.5h15.9v5.4h-15.9zM408.8 406h35.6v5.4h-35.6zM449.8 406H499v5.4h-49.2zM381.3 385.7h37.1v5.4h-37.1zM381.3 406h22v5.4h-22zM448 385.7h20.8v5.4H448zM382 507h20.8v5.4H382zM381.2 345.2h37.1v5.4h-37.1zM414 446.6h37.1v5.4H414zM414.5 486.9h37.1v5.4h-37.1zM480.4 486.9h37.1v5.4h-37.1zM381.2 365.4h52.9v5.4h-52.9zM629.1 304.9h37.1v5.4h-37.1zM496.9 507H534v5.4h-37.1zM677.7 304.9h24.8v5.4h-24.8zM761.8 325.1h24.8v5.4h-24.8zM490.3 304.9h47.3v5.4h-47.3zM674.5 325.1h47.3v5.4h-47.3zM616.5 345.2h47.3v5.4h-47.3zM555 365.4h47.3v5.4H555zM669.7 345.2h33.6v5.4h-33.6zM572.5 304.9h47.3v5.4h-47.3zM518.6 365.4h27.7v5.4h-27.7zM496.9 446.9h27.7v5.4h-27.7zM546.3 304.9h17.3v5.4h-17.3zM490.3 365.4h17.3v5.4h-17.3zM733.2 325.1h17.3v5.4h-17.3zM380.7 325.1h27.1v5.4h-27.1zM453 426.4h21.4v5.4H453zM414.5 325.1h8.7v5.4h-8.7zM593.9 325.1h72.3v5.4h-72.3zM524.6 486.9h72.3v5.4h-72.3zM429.6 325.1h8.9v5.4h-8.9zM563.6 325.1h23.6v5.4h-23.6zM587.3 345.2h23.6v5.4h-23.6zM465.7 507h23.6v5.4h-23.6zM507.1 325.1h50.3v5.4h-50.3zM460.2 446.9h29.4v5.4h-29.4zM458.4 486.9h14.7v5.4h-14.7zM482.6 325.1h17.3v5.4h-17.3zM424.4 345.2h17.3v5.4h-17.3zM427.8 426.4h17.3v5.4h-17.3zM445.9 325.1h30.2v5.4h-30.2z" class="colorf7f7f7 svgShape"></path><path fill="#509eff" d="M699.1 365.6s8.8 14.9 12.5 17.3c5 3.3 1.9 6.6-.5 6.7-2.4 0-14.6.9-17.3-2.2-2.7-3.1-4-12.2-6.5-14.6-2.5-2.4-5.1-11.9 1.2-14.2 5.5-2.1 10.6 7 10.6 7z" class="colorffb750 svgShape"></path><path fill="#cae2ff" d="M695.2 359.1s10.1 17.5 11.8 20c1.7 2.6-3.3 2.6-6.4 1.4-3.1-1.2-10.9-13.7-12-16-1.3-2.7-.2-5.8-.2-5.8l6.8.4z" class="colorffe3ca svgShape"></path><path fill="#509eff" d="m685 368.4 2.4 17.9 1.2.1-.4-12.9zM611.8 365.6s8.8 14.9 12.5 17.3c5 3.3 1.9 6.6-.5 6.7-2.4 0-14.6.9-17.3-2.2-2.7-3.1-4-12.2-6.5-14.6-2.5-2.4-5.2-12.2 1.2-14.2 5.6-1.8 10.6 7 10.6 7z" class="colorffb750 svgShape"></path><path fill="#cae2ff" d="M608.5 359.1s9.5 17.4 11.3 20c1.7 2.6-3.3 2.6-6.4 1.4-3.1-1.2-10.9-13.7-12-16-1.3-2.7-.2-5.8-.2-5.8l7.3.4z" class="colorffe3ca svgShape"></path><path fill="#509eff" d="m597.8 368.4 2.3 17.9 1.3.1-.4-12.9z" class="colorffb750 svgShape"></path><path fill="#cae2ff" d="m572.8 229.9 79.6 36.3s8.9 2.9 9.9 12.8c3.1 30.8 26.1 79.6 26.1 79.6 7.4 3.6 6.8.5 6.8.5-4.7-15-10.3-76.6-12.4-101.3-.4-5.2-.7-8.8-.8-10 0-.8-.9-1.8-2.4-3-10.9-8.9-55.9-27.2-55.9-27.2-33.5-.9-50.9 12.3-50.9 12.3z" class="colorffe3ca svgShape"></path><path fill="#cae2ff" d="M557.8 245.5c2.5 21.5 33.2 19.1 33.2 19.1h37.2s-9.8 21.8-13.6 40.1c-4 19.5-13.5 53.9-13.5 53.9s.6 1.2 7.4.5c0 0 29.2-58.2 40.4-72.9 2.4-3.1 9.3-20.3 10.5-30.5.4-3.4.2-6.1-1.1-7.2-1.3-1.1-4.3-3.1-8.2-5.6-11.7-7.4-31.9-18.7-43.2-21.2-15.1-3.4-39-9.8-39-9.8s-12.6 12.1-10.1 33.6z" class="colorffe3ca svgShape"></path><path fill="#0e8c8c" d="M583.1 79.7s-5.6-10.6-2.9-21.8c2.7-11.3 13.2-22.5 28.5-17.3 15.3 5.2 27.7 17 18.5 30.8-9.2 13.7 8.3 20 3.8 26.5-4.5 6.5-2.8 13.4-.9 14.9s8 6.9 7.3 13.4c-.7 6.4-29.7-18.7-29.7-18.7S592 75.6 583.1 79.7z" class="color0e538c svgShape"></path><path fill="#47ebeb" d="M629.8 214.9s-2.3 11.2-61.8-2.9c0 0 19.9-6.6 61.8 2.9z" class="coloreb4747 svgShape"></path><path fill="#ffffff" d="M567.3 215.1c-.9 1.8-1.8 3.5-2.8 5.3 21.7.6 43.5 1.3 65.2 1.9-3.4-11.5-2.3-27.1-1.7-38.9.7-14.5 8.7-24.5 7.9-39.1 4.3.7 5 .8 9.3 1.5-6.6-18.8-8.8-28.1-29.3-35.3-6.7-2.4-11-2.8-18.2-2.2-23.7 2-30.8 2.2-42.5 23.7 18.2 2.9 15.2 9.4 20.7 27.6 2.7 8.8 5.5 18.7 4.1 28-1.4 9.1-12.7 19.2-12.7 27.5z" class="colorffffff svgShape"></path><path fill="#cae2ff" d="M605.1 115c-9.7-1.8-7.6-7.2-7.6-7.2s.4-3 .6-6.9c0-1 .1-2 .1-3.1 0-1.6-.1-3.2-.3-4.8-.8-6.5 17.6-2.6 17.6-2.6s-1.1 13.2 1.5 17.1c2.5 4-2.2 9.4-11.9 7.5z" class="colorffe3ca svgShape"></path><path fill="#cae2ff" d="M586.6 107.8s19.6 22.6 26.8 27.8c0 0 8.3-7.5 3.2-27.3 0 0-9.4-4.8-30-.5zM587.2 53.4S577 73 587.1 91.5s29.9-8.1 31.1-11.2c1.3-3.1 8.1-20.8-5.4-26.1-13.5-5.4-22.7-6.1-25.6-.8z" class="colorffe3ca svgShape"></path><path fill="#b1d2fc" d="M606.8 93.5s-1.8 3.9-8.7 7.4c0-1 .1-2 .1-3.1 0 0 4.7-.5 8.6-4.3z" class="colorfcd2b1 svgShape"></path><path fill="#cae2ff" d="M504.1 197.5s-4.8 2.1-7.1 1.2c-2.3-1-5.8-1.2-6.9-1.2-1.5 0-6.2-1.7-6.1.2.1 1.8 7.6 3.1 9.1 3.7 1.5.6-4.6 3.9-5.2 5.4-.6 1.5 6.4 11.3 10.3 8.5 3.9-2.8 6-8.4 6.8-8.8.8-.4 2.9-1.9 2.9-1.9l-3.8-7.1z" class="colorffe3ca svgShape"></path><path fill="#cae2ff" d="M488.7 205.9s-11.3 9.4-11.5 10.7c-.2 1.3.4 1.9 1.5 1 1.1-.8 11.2-8.8 11.2-8.8s-11.3 13.4-11.7 14.4c-.2.6.9 1.8 1.5 1.4.6-.4 12.7-13 12.7-13s-10.6 12.5-10.6 13.5c-.1.8 1.2 1.7 2.1.8.9-.9 11.4-11.9 11.4-11.9s-7.1 9.6-6.6 10.5c.3.5 1.2 1.6 2.9-.9s6.5-8.1 6.5-8.1l-9.4-9.6z" class="colorffe3ca svgShape"></path><path fill="#0e8c8c" d="M624.3 264.5H591s-30.7 2.5-33.2-19.1c-2.5-21.5 10.1-33.5 10.1-33.5s16.2 4.3 30.4 7.7c7.1-1.5 15.6-2.5 25.6-2.2 0 0 60 19.8 58.2 30.3 0 .1-25.1-13.3-57.8 16.8z" class="color0e538c svgShape"></path><path fill="#f2f2f2" d="m602.6 227.3 63.6-1-32.1 16.3z" class="colorf2f2f2 svgShape"></path><path fill="#ffffff" d="M622.4 219.1s-14.3 5.5-31.8.5l-.8-6.5 36.1 2-3.5 4z" class="colorffffff svgShape"></path><path fill="#d3d3d3" d="m634.1 242.6-31.5-12.2v-3.1l34 12.2z" class="colord3d3d3 svgShape"></path><path fill="#55a0ff" d="M622.1 222.2c-.2 2.3 2.2 4 4.4 3.1l3.7-1.6c1.1-.5 1.8-1.6 1.6-2.8-1.5-9.6-4.8-47 0-53.5 1.8-2.4 2.9-4.5 3.5-6.3 3.2 8.2 7.1 18.8 8.7 24.5l30 40 10.1 2.6c-12.6-30.3-22.7-46.3-22.7-46.3-2-5.3-7.6-21.3-12.6-35.5-3.2-9-6-17.3-7.6-21.7-.8-2.3-2.3-4.2-4.4-5.4-4.7-2.8-12.4-7.2-19.4-10.6h-.1c-.2-.1-.4-.2-.7-.3 13.4 20.1 8.2 77.2 5.5 113.8 0-.1 0-.1 0 0zM572.5 110c-4.3.7-14.9 11-20.5 21.4-6.4 11.9-13 25.4-17.9 29.8-9 8.2-34.3 37.1-35.5 36.4-.5-.3 6.9 8.6 7.9 9 .5.2 41.5-35.4 45.5-40.8 3.7-5.1 13.7-26.7 16.7-26.2.2.5 3.9 8.4 7.3 19.9.1.2.1.4.2.6 2.4 8 2.2 16.8.9 26.6-1 7.4-6.5 19.5-9.8 25.4-.4.7-.3 2.1.1 3.1.3.6.6 1.1 1.1 1.3l12.1 4.5 2.8 1c2 .8 4.2.4 5.8-.8 1.3-.9 2.3-2.4 2.5-4.2 2.7-20.6 6.1-41.7 8.8-49.6 11.9-34.8-4.6-61-4.6-61s-19.6 2.2-23.4 3.6z" class="colorffbe55 svgShape"></path><path fill="#55a0ff" d="M634.1 242.6 653 191l60.9 1-18 47.6z" class="colorffbe55 svgShape"></path><path fill="#f0f1f2" d="M672.5 213.8c-1.9 3.7-1.3 7.8 1.3 9 2.6 1.3 6.1-.7 8-4.4 1.9-3.7 1.3-7.8-1.3-9-2.6-1.3-6.2.7-8 4.4z" class="colorf2f0f0 svgShape"></path><path fill="#0e8c8c" d="M635.5 116.3c-4.5-6.8-7.7-12.2-8.1-21.9-.3-6.4-1.7-15.1-6.1-19.4 4.6-12-.8-15.6-3-19.5-2.7-4.9-22.7-16.7-30.6-4.3-7.9 12.3-5.1 25.2-5.1 25.2.8-6.8 7.8-16 7.8-16 1.1 7.1 15.8 18.7 22.2 23.4-.1.1-.2.3-.2.4-3.6 5.2.9 10.4 1.7 15.9.8 5.5-15.1 20.3 2.6 27.7 17.7 7.5 23.3-4.8 18.8-11.5zM313.6 698.8s-.4 4.2-20 4.2-48.1-5.1-48.1-5.1l45.5-4.4s17.5-.9 22.6 5.3z" class="color0e538c svgShape"></path><path fill="#0e8c8c" d="M263.7 700.3c-11.1 0-15.8 5.7-20.2 7.5-4.4 1.8-8.8 4.5-8.8 4.4 2.5-4.9 6-5 7.8-6.6 1.8-1.6 1.3-.8-2.6-1.1-2.2-.2-6.2 3.9-9 6.2-2.5 1.9-4 2.1-4 2.1s2.9-4.1 6.5-7.4c4.4-4 9.9-7.3 11.2-7.9 2.4-1 9.8-1.2 15-.5 6 .8 12.1 3.3 4.1 3.3z" class="color0e538c svgShape"></path><path fill="#0e8c8c" d="M245.3 697.7s-8.5 2.2-10 3.4c-1 .8-5.4 5.5-5.4 5.5s3.2-.5 5-2.3c1.9-1.9 10.4-6.6 10.4-6.6zM297.5 690.2s21.4 1.4 19.9 14.6c-.8 7.5-5.7 10.1-12.2 9.5-12-1-25.6-2.8-25.6-2.8l-6.1-20.5 24-.8z" class="color0e538c svgShape"></path><path fill="#0e8c8c" d="m302 692 21-67.7s3.1-9.9 8.2-8.1c7.3 2.7 3.7 10.8 3.1 15.6-1.3 9.8-.4 14.1-7.2 37.7-4.2 14.6-7.8 31.4-11.4 41-2.5 6.6-6.8-2.9-13.3-5.5-12.2-4.9-.4-13-.4-13zM303.6 587.5c4.1 11.8 16.8 17.9 28.5 13.6 11.6-4.3 17.8-17.4 13.7-29.2-4.1-11.8-16.8-17.9-28.5-13.6-11.6 4.3-17.8 17.4-13.7 29.2z" class="color0e538c svgShape"></path><path fill="#0e8c8c" d="M280.6 588.6c6.4 9.6 19.2 12 28.5 5.4l-1.3-11.3c9.3-6.7 11.6-19.9 5.2-29.5l-4.4-6.5c-6.4-9.6-19.2-12-28.5-5.4l-4.2 3c-9.3 6.7-11.6 19.9-5.2 29.5l9.9 14.8z" class="color0e538c svgShape"></path><path fill="#cae2ff" d="M272.2 557.1c1.1 1.6 2.3 3.1 3.7 4.6 9.2 10 21.5 13.8 29.3 9.7 3.6 4.9 7.7 8.8 11.4 11.8 4.3 3.5 15.3 4.9 15.3 4.9 6.4 7-17.6 47.9-19.3 47.7-3.5-.3-8-22.9-4.7-31.1 1.5-3.7 3.9-8.1 3.2-10.1-2.5-6.9-6-5.7-6-5.7s-4.6 5.4-8.2 5.2c-3.7-.3-10.1-6.1-10.4-6.2-1.1-.9-2.1-2-3-3.3l-9.6-14.4c-2.5-4-3.1-8.8-1.7-13.1z" class="colorffe3ca svgShape"></path><path fill="#f0f1f2" d="M345.6 729.4s-7.8 9.4-10.2 10.4c-3.2 1.4-13-1.6-13-1.6s-2.6-43.1-5.6-59.9c-3-16.8-7.4-21.2-7.6-26.5-.3-8.5-7.4-11.9-6.2-18.5 1.2-6.6 3.3-30.2 4-27.1 6.1 26.8 13.6 4.5 15.3 1 .9-1.9 23.3 122.2 23.3 122.2z" class="colorf2f0f0 svgShape"></path><path fill="#0e8c8c" d="M310.1 598.2s-9.5 10.4-8.8 14.5c.6 4.1-4.1 16.9.6 34.7 5.3 20.3 8.1 34.1 9.1 47.4 1 13.3-3.5 25.5-1.7 41.8 1.4 12.8 4.3 13.5 4.3 13.5s5.7 1.4 9.7-3.6c4-4.9-2-48.5-4-59.3-2-10.9-8.4-36.3-10.1-43.8-2.1-9.2-1.7-18.6-1.6-21.3.5-9.5 1.7-15.4 2.7-19 .1-.5.6-6.1-.2-4.9zM326.7 610.4c5.2 15 21.4 22.7 36.2 17.2 14.8-5.5 22.6-22.1 17.4-37.1-5.2-15-21.4-22.7-36.2-17.2-14.8 5.4-22.6 22.1-17.4 37.1z" class="color0e538c svgShape"></path><path fill="#a2cafc" d="m275.8 868.2 5.3 42.3-23 10.9-12.7 2.8 22.6-17.5-7.4-38.2z" class="colorfcbaa2 svgShape"></path><path fill="#0e8c8c" d="m282.6 916.9-5 1.3-3.4-3.1-18.4 9.2-16.3 3.9s-.2-1.3.3-2c2-2.7 13.5-8.6 13.5-8.6s.2 3.9 1.8 4c1.6.1 15.7-7.3 19-9.3 5.6-3.5 6.7-5.8 7.1-5.5 1.2.6 1.4 10.1 1.4 10.1z" class="color0e538c svgShape"></path><path fill="#a2cafc" d="m220.3 809.4-18.3 36-25.2-1.2-12.6-3.7 27.9-4.7 15.2-30.8z" class="colorfcbaa2 svgShape"></path><path fill="#0e8c8c" d="m200.5 851.8-5-1.2-1.6-4.4-22.7-.3-13.5-3.2s1.6-1.8 2.6-2.3c3-1.3 13.7-1.9 13.7-1.9s-1.1 3.1.3 3.9c1.4.9 17 1.4 20.8 1.1 6.6-.5 8.5-1.9 8.7-1.5.7 1.4-3.3 9.8-3.3 9.8z" class="color0e538c svgShape"></path><path fill="#509eff" d="m353.8 701.7-13.6 6.1.1 18.7-93.7-15.3s-8.9-2.9-14.6 11.8c-8.1 20.8-28.7 85.5-28.7 85.5l13 14.1 40.9-73.1s83.8 40.7 111.4 31.9c10.6-3.4 18.7-22.8 17.2-42.4-1.2-15.4-4.2-29.5-4.2-29.5l-27.8-7.8z" class="colorffb750 svgShape"></path><path fill="#509eff" d="m341.9 781-67.1-5 5.8 107.2-19.8.7-14.6-125.6s3.9-18.7 16.7-15.9c12.9 2.9 43.9 27.5 79 38.6z" class="colorffb750 svgShape"></path><path fill="#4d9cff" d="M387.1 807.9s-35.2-39.5-44.3-61.8c-10.9-26.7-10-60.2-12-71.3-3.7-20.4-8.2-60-9-64.9-.9-4.9 2.2-10.4 2.2-10.4s-2.3-14.8 4.3-13.2c9.5 2.3 18.9 7.5 22.2 9.1 6.2 2.8 18.9 77.4 19.6 81 2.6 13 12.1 24.8 18.9 36.9 16 28.7 20.1 62.6 20.1 62.6s-2 24.8-22 32z" class="color2a94f4 svgShape"></path><path fill="#cae2ff" d="M350.8 704.6s-.3 4.8-22.7 3.7c-22.4-1.2-55.2-8.7-55.2-8.7l51.9-2.4s19.9.1 26 7.4z" class="colorffe3ca svgShape"></path><path fill="#cae2ff" d="M290.5 702.2c-10.7-.2-15.3 5.3-19.5 7-4.2 1.7-8.5 4.2-8.5 4.2 2.4-4.7 5.8-4.8 7.6-6.3 1.7-1.5 1.3-.7-2.5-1.1-2.2-.2-6 3.7-8.7 5.9-2.4 1.9-3.9 2-3.9 2s2.8-4 6.3-7.2c4.3-3.8 9.5-7 10.8-7.5 2.3-.9 9.4-1 14.5-.2 5.7.8 11.6 3.4 3.9 3.2z" class="colorffe3ca svgShape"></path><path fill="#cae2ff" d="M272.6 699.3s-8.2 2-9.6 3.1c-1 .8-5.2 5.3-5.2 5.3s3-.5 4.8-2.2c1.8-1.6 10-6.2 10-6.2z" class="colorffe3ca svgShape"></path><path fill="#0e8c8c" d="m332.9 699.3 33.2-17.5s.1 21.2.3 29.3c.2 8.1 3.6 19.5-2.8 21.2-6.4 1.7-9.7.8-3.1 4.7 6.6 3.8 5.1 7.8 2.6 11.1-2.5 3.3 8.4 36.9 5.8 38.8-10.3-13-21.4-29.1-26.2-40.8-6.1-15.2-8.5-32.6-9.8-46.8z" class="color0e538c svgShape"></path><path fill="#4d9cff" d="m343.6 690.8-1.3-67.6s.1-21.1.5-27.3c.4-6.4 11.3 1.1 11.3 1.1s15.3 20.7 15.6 70.6c.2 33.4-1.6 50.8-17 49.4-14.3-1.3-30.6-3.5-30.6-3.5L315 695l28.6-4.2z" class="color2a94f4 svgShape"></path><path fill="#d3d3d3" d="m340.2 726.5-114.3-14.3.3-2.4 114.3 14.3z" class="colord3d3d3 svgShape"></path><path fill="#d3d3d3" d="M290.1 717.7c-.2 1.9-1.7 3.3-3.3 3.1l-58.6-7.3c-1.6-.2-3.6-1.7-5-6.7l-22.6-58.5c.3-2.4 2.2-3.6 3.8-3l59.9 9.4c1.6.6 2.7 2 3.3 4.6l22.5 58.4z" class="colord3d3d3 svgShape"></path><path fill="#d3d3d3" d="m282.7 719.3.6.1 57.2 7.2c-2.2.9-5.7 1.2-9.6.7l-47.9-6-.6-.1-47.9-6c-3.9-.5-7.2-1.7-9.2-3l57.4 7.1z" class="colord3d3d3 svgShape"></path><path fill="#0e8c8c" d="m343.6 690.8-1.3-67.6s1-5.7 3-10.8c.5 7.4 3.9 60.7 4.3 67.7.5 7.6 6.7 8.4 8 10.9 1.4 2.4.2 2.9-4.4 2-4.5-1-2.9-.2-1.9 2.2 1 2.5-1.5 1.8-10.3-1.4-6.4-2.3-18.7 0-24.9 1.4l27.5-4.4z" class="color0e538c svgShape"></path><path fill="#cce3ff" d="M738.8 524.9c-11 2.9-31.3 13.1-35.6 30.6-6.4 26.3 6.4 64.8-13.8 102.6-6.5 12 111.7 28.2 111.7 28.2l22.8-132.8s-28.5-28.8-34.3-30.8c-12.1-4-28.8-3.6-50.8 2.2z" class="colorcce9ff svgShape"></path><path fill="#4d9cff" d="M824 553.6c4.1 10.6 14.5 73.7 2.9 88.6-1.3 1.7 6 4.4 4.7 12.2-.2 1.3-2.4 7.6-2.4 7.6l-9.4 2.5-20.5-23.7s8.3-12.9 19.2-61.8c3.2-14.4 4.6-27.8 5.5-25.4z" class="color2a94f4 svgShape"></path><path fill="#b1d2fc" d="M746.4 629s9.9 26.1 33.8 33.1c4.1 1.2 6.7 5.8 4.7 7.3-2.6 1.9-6 2.3-12 2.3-12.5 0-29.5-4-41.2-15.8-17.4-17.4-22.9-25.4-21.1-34.1 1.6-8.9 35.8 7.2 35.8 7.2z" class="colorfcd2b1 svgShape"></path><path fill="#4d9cff" d="M706.6 546.7c-5.1 8.6-8 22.4-7.9 42.2 0 15.3 12.8 40.4 14.7 48.1.3 1.3 1.1 6.8 1.1 6.8l14.1 14.4 28.3-19.9-8.6-13.7-2.6.3s-1.6-7.6-1.2-10.5c.4-2.9-7.8-42.4-11.9-67.7-2.3-14.7-21-8.5-26 0z" class="color2a94f4 svgShape"></path><path fill="#0e8c8c" d="m732 624.3 8.3-2.6 3.4-.9c.2 2.4 2.2 4 2.2 4l-6.5.8-7.5 2.4-8.8 6.3 8.9-10z" class="color0e538c svgShape"></path><path fill="#b1d2fc" d="m778.4 662 14.4-4.1s4.1 5.7 3.3 7.1c-.8 1.4 0 9.8 0 9.8l-7 6.2-5.7-2s-.4-2.6 1.5-2.8c2-.3-1.3-1.7-2.3-2.3-1-.7-9.3-5.1-4.2-11.9z" class="colorfcd2b1 svgShape"></path><path fill="#7eb7ff" d="M756.2 523.6c-1.6 4.7.8 10 5.4 11.6l8.2 3c4.6 1.7 9.6-.9 11.2-5.6l7.3-21.6c1.6-4.7-.8-10-5.4-11.7l-8.2-3c-4.6-1.7-9.6.9-11.2 5.6l-7.3 21.7z" class="colorff957e svgShape"></path><path fill="#b1d2fc" d="M792 542.6c-.8 3.1-4 5-7 4.1l-24.7-7.1c-3-.9-4.8-4.1-4-7.3l10.1-37.9c.8-3.1 4-5 7-4.1l24.7 7c3 .9 4.8 4.1 4 7.3l-10.1 38z" class="colorfcd2b1 svgShape"></path><path fill="#55a0ff" d="M804.8 500.8c.2-.2-2.3-3-1-8.5 1.7-7.4-3.8-10.4-7.9-10.5-2.4-.1-10.5 3.8-14.8 5.1-4.3 1.3-3.9-.4-11.7-1.8-5.2-1-6.4 1.9-8.2 5.9-1.8 4.1-2 19.7-2 19.7.7 1 1.8 1.8 2.5 1s3.5-13.3 5.8-17c2.2-3.7 11.2 2.2 16.1 5.1 4.8 2.9 9.1 3.4 16.8 1.8.9 1 1.7 2.1 1.7 2.6 0 1-2.2 8.1-2.2 8.1s4.3-2.7 5.5-4.8c.6-.7.8-4.1-.6-6.7z" class="colorffbe55 svgShape"></path><path fill="#b1d2fc" d="M764.1 524.4c-.3 1-1.3 1.7-2.3 1.4l-5.3-1.5c-1-.3-1.6-1.4-1.3-2.4l2.7-10.1c.3-1 1.3-1.7 2.3-1.4l5.3 1.5c1 .3 1.6 1.4 1.3 2.4l-2.7 10.1z" class="colorfcd2b1 svgShape"></path><path fill="#55a0ff" d="M760.8 514.8s-4 14.9-5.3 19.9c-1.2 4.5-2.1 14.9 22.4 21.9 14.5 4.1 16.9-7.1 17.9-10.7.7-2.8-.1-11.9-1.2-13.9 0-.1-1.6 6.2-1.6 6.2s-1.4-6.9-8.3-8.8c-11.1-3.2-15.5 2.9-20.3 1.3-3.8-1.3-4.9-8.5-3.6-15.9z" class="colorffbe55 svgShape"></path><path fill="#b1d2fc" d="m777.5 537.7 7.6 2.2c1 .3 2.1-.3 2.3-1.4l.3-1.1-11.3-3.2-.3 1.1c-.2 1.1.4 2.1 1.4 2.4z" class="colorfcd2b1 svgShape"></path><path fill="#0b7070" d="M898 689.2c-3.5 10.1-65.1 47.2-85.8 45l-62.3 3.1c-52.9-6.7-78-91.9-78-91.9 2.1-21.4 54.3 9.6 72.9 19.2 29.4 15.2 48.1 16 48.1 16 19.7 2.1 42.5-13.7 67.4-14.2 27.3-.7 43.3 6.9 37.7 22.8z" class="color0b4870 svgShape"></path><path fill="#d3d3d3" d="M762.6 679c0-.1 0-.1 0 0v-2.8l107.1-2V677l-.3.5c-1.3 2.4-3.8 2.8-6.6 2.9l-93.2 1.8c-2.8.1-5.3-.3-6.7-2.6l-.3-.6z" class="colord3d3d3 svgShape"></path><path fill="#d3d3d3" d="M788.4 678.9s0 .1 0 0l-.3.5c-.4.6-.9 1.1-1.5 1.4l-16.3.3c-2.7.1-5.1-.2-6.5-2.1l-.3-.4-.1-.1v-1.3l24.8-.5.2 2.2zM802.9 677.9l53.5-1V675l-53.6 1.1zM789 675.6l12.9-54.8c.3-1.4 1.7-2.6 3.1-2.7l75.2-1.4c1.4 0 2.2 1.1 1.9 2.6l-12.9 54.8-80.2 1.5z" class="colord3d3d3 svgShape"></path><path fill="#b1d2fc" d="M740.5 751.4c7.4 1.3 13.1-7.6 13.1-7.6l19.2-15.6-4.1-10.6-37.4 17.4s1.7 15.1 9.2 16.4z" class="colorfcd2b1 svgShape"></path><path fill="#509eff" d="M753.5 743.2s0 .9-1.4 5-3.2 5.5-5 6.1c-7.2 2.2-12.3 1.1-29.5 4.5s-22.4.8-27.4-7.4c-5-8.2.2-14.7 8.6-15.3 12.1-.9 18.9.5 25.2-.5 6.6-1 7-2.6 10.9-5.1 3.6-2.3 7 11.5 3.6 14.7-3.1 2.8 12.5 3.2 15-2z" class="colorffb750 svgShape"></path><path fill="#ffffff" d="M749.9 751.1c-7.1 2.2-12.3 1.1-29.5 4.5s-22.4.8-27.4-7.4c-2.3-3.8-2.4-7.2-1.1-9.8-3.8 2.7-5.1 7.4-1.7 13 5 8.2 10.2 10.8 27.4 7.4 17.2-3.4 22.4-2.3 29.5-4.5 1.4-.4 2.8-1.4 4-3.7-.4.2-.8.4-1.2.5z" class="colorffffff svgShape"></path><path fill="#b8cee9" d="M753.5 743.5v-.2c0 .1-.1.2-.2.3.1-.1.2-.1.2-.1z" class="colore9d6b8 svgShape"></path><path fill="#ffffff" d="M716.4 749.6c-.5.2-1-.9-1.2-2.4-.3-3.1-1-6.1-2-9.2-.5-1.5-.5-2.8.1-3 .6-.2 1.6.9 2 2.4 1 3 1.6 6.1 1.9 9.1.2 1.5-.3 2.9-.8 3.1zM721.7 748.6c-.6.1-1.1-.9-1.3-2.3-.3-2.9-1-5.8-2-8.6-.5-1.4-.5-2.6.2-2.7.6-.1 1.6 1 2.1 2.4.9 2.8 1.6 5.7 1.9 8.5.1 1.4-.3 2.6-.9 2.7zM727.3 748.4c-.6.1-1.2-1-1.4-2.5-.5-3-1.2-5.9-2.3-8.9-.5-1.5-.5-2.7.1-2.7.7 0 1.7 1.1 2.2 2.6 1.1 2.9 1.8 5.9 2.2 8.8.2 1.4-.2 2.6-.8 2.7z" class="colorffffff svgShape"></path><path fill="#0e8c8c" d="M741.8 725.9s131.7-56.1 139.2-56.2c25.4-.2 19.6 26.4 6.7 39-15.2 14.8-130.8 41.9-130.8 41.9l-15.1-24.7z" class="color0e538c svgShape"></path><path fill="#b1d2fc" d="m794 735.7-36-35.4 15.4-15.7 39.2 42.8z" class="colorfcd2b1 svgShape"></path><path fill="#0e8c8c" d="M801.4 707.9s-91.5-86.9-97.6-89.5c-20.9-8.8-33.8 15.1-33.1 23.4 1 10.7 93.9 97.7 93.9 97.7l36.8-31.6z" class="color0e538c svgShape"></path><path fill="#509eff" d="M855.6 738.4c2.1 2 2.5 8.1 2.5 8.1s-30.5 12-41.2 12.2c-2.8.1-7.8-1.1-12.6-2.5-.8-.2-2.7-2.4-3.5-2.6-1.5-.4-1.8 1-3 .6-3.2-1.1-5.6-2-5.7-2.2-6.5-14.2-4.3-21.2-4.3-21.2s14 4.2 11.6.9c-5.1-7 9.6-14.1 12.8-10.4 13.2 14.9 37.2 11.2 43.4 17.1z" class="colorffb750 svgShape"></path><path fill="#ffffff" d="M857.3 741.4c-9.4 3.9-29.1 11.8-33 12.1-16.1 1.2-27.3-4.7-34.8-8.2.7 2 1.5 4.3 2.6 6.7.1.2 2.4 1.1 5.7 2.2 1.3.4 1.6-1.1 3-.6.8.2 2.6 2.4 3.5 2.6 4.8 1.4 9.8 2.5 12.6 2.5 10.7-.2 41.2-12.2 41.2-12.2s0-2.8-.8-5.1zM835.8 732.2c.3.6-.9 1.2-2.6 1.6-3.5.7-6.9 1.8-10.3 3.2-1.7.7-3.2.9-3.4.3-.2-.6.9-1.7 2.6-2.4 3.3-1.4 6.8-2.4 10.2-3.1 1.6-.5 3.2-.2 3.5.4zM828.9 729.7c.3.6-.9 1.4-2.6 1.9-3.4 1-6.7 2.4-10 4.1-1.6.8-3.1 1.1-3.3.5-.2-.6.9-1.9 2.5-2.7 3.2-1.6 6.5-3 9.9-3.9 1.7-.7 3.3-.5 3.5.1zM822.3 727.5c.2.6-.9 1.5-2.5 2.1-3.3 1.3-6.5 2.9-9.6 4.8-1.5 1-2.9 1.3-3.1.6-.2-.6.8-2 2.4-3 3.1-1.9 6.3-3.5 9.5-4.7 1.6-.5 3.1-.4 3.3.2z" class="colorffffff svgShape"></path></g></switch></svg>